<?xml version="1.0" encoding="UTF-8"?>
<svg width="155" height="155" xmlns="http://www.w3.org/2000/svg" xmlns:svg="http://www.w3.org/2000/svg">
  <g fill="#2962FF">
    <circle cx="77.5" cy="87.5" r="15"/>
  </g>  
  <g fill="#0091EA">
	<path d="M 55.4 100.2
			Q 50.5 104.8 45.5 115.2
			A 10 10 0 1 1 37.4 101.2
			Q 49 102.2 55.4 100.2
			z" />
	<path d="M 77.5 62
			Q 76 55.5 69.5 45.9
			A 10 10 0 1 1 85.7 45.9
			Q 79 55.5 77.5 62
			z" />
	<path d="M 99.5 100.2
			Q 105.9 102.2 117.5 101.4
			A 10 10 0 1 1 109.4 115.4
			Q 104.5 104.8 99.5 100.2
			z" />
  </g>  
  <g fill="#00B8D4">
    <circle cx="12.5" cy="125.5" r="10" />
    <circle cx="77.5" cy="12.5" r="10" />
    <circle cx="142.5" cy="124.5" r="10" />
  </g>  
</svg>